<svg width="16" height="17" viewBox="0 0 16 17" fill="none" xmlns="http://www.w3.org/2000/svg">
<path d="M4.66668 3.63334H15.3333V6.30001H14.6667V6.96667H10.6667C10.4899 6.96667 10.3203 7.03691 10.1953 7.16194C10.0702 7.28696 10 7.45653 10 7.63334V8.30001C10 8.65363 9.85953 8.99277 9.60948 9.24282C9.35944 9.49287 9.0203 9.63334 8.66668 9.63334H6.41334C6.16001 9.63334 5.92668 9.78001 5.81334 10.0067L4.18001 13.2667C4.06668 13.4933 3.84001 13.6333 3.58668 13.6333H1.33334C1.33334 13.6333 -0.666658 13.6333 2.00001 9.63334C2.00001 9.63334 4.00001 6.96667 1.33334 6.96667V3.63334H2.00001L2.33334 2.96667H4.33334L4.66668 3.63334ZM9.33334 8.30001V7.63334C9.33334 7.45653 9.2631 7.28696 9.13808 7.16194C9.01306 7.03691 8.84349 6.96667 8.66668 6.96667H8.00001C8.00001 6.96667 7.33334 7.63334 8.00001 8.30001C7.64639 8.30001 7.30725 8.15953 7.0572 7.90948C6.80715 7.65944 6.66668 7.3203 6.66668 6.96667C6.48986 6.96667 6.3203 7.03691 6.19527 7.16194C6.07025 7.28696 6.00001 7.45653 6.00001 7.63334V8.30001C6.00001 8.47682 6.07025 8.64639 6.19527 8.77141C6.3203 8.89644 6.48986 8.96667 6.66668 8.96667H8.66668C8.84349 8.96667 9.01306 8.89644 9.13808 8.77141C9.2631 8.64639 9.33334 8.47682 9.33334 8.30001Z" fill="#EF4444"/>
</svg>
