<svg width="20" height="20" viewBox="0 0 20 20" fill="none" xmlns="http://www.w3.org/2000/svg">
<rect width="20" height="20" rx="10" fill="#172554"/>
<path d="M9.15 11.5H7.5C6.96957 11.5 6.46086 11.7107 6.08579 12.0858C5.71071 12.4609 5.5 12.9696 5.5 13.5V14.5M14.5 14.5L13.55 13.55M11 7.5C11 8.60457 10.1046 9.5 9 9.5C7.89543 9.5 7 8.60457 7 7.5C7 6.39543 7.89543 5.5 9 5.5C10.1046 5.5 11 6.39543 11 7.5ZM14 12.5C14 13.3284 13.3284 14 12.5 14C11.6716 14 11 13.3284 11 12.5C11 11.6716 11.6716 11 12.5 11C13.3284 11 14 11.6716 14 12.5Z" stroke="#3B82F6" stroke-linecap="round" stroke-linejoin="round"/>
</svg>
